<svg width="80" height="41" viewBox="0 0 80 41" fill="none" xmlns="http://www.w3.org/2000/svg">
<line x1="21.5023" y1="39.1742" x2="21.5023" y2="37.3015" stroke="black" stroke-width="2.84251" stroke-linecap="round"/>
<line x1="21.5023" y1="21.8805" x2="21.5023" y2="20.0078" stroke="black" stroke-width="2.84251" stroke-linecap="round"/>
<line x1="21.5023" y1="4.58679" x2="21.5023" y2="2.71408" stroke="black" stroke-width="2.84251" stroke-linecap="round"/>
<line x1="29.7765" y1="39.1742" x2="29.7765" y2="37.3015" stroke="black" stroke-width="2.84251" stroke-linecap="round"/>
<line x1="29.7765" y1="21.8805" x2="29.7765" y2="20.0078" stroke="black" stroke-width="2.84251" stroke-linecap="round"/>
<line x1="29.7765" y1="4.58679" x2="29.7765" y2="2.71408" stroke="black" stroke-width="2.84251" stroke-linecap="round"/>
<line x1="38.0507" y1="39.1742" x2="38.0507" y2="37.3015" stroke="black" stroke-width="2.84251" stroke-linecap="round"/>
<line x1="38.0507" y1="21.8805" x2="38.0507" y2="20.0078" stroke="black" stroke-width="2.84251" stroke-linecap="round"/>
<line x1="38.0507" y1="4.58679" x2="38.0507" y2="2.71408" stroke="black" stroke-width="2.84251" stroke-linecap="round"/>
<path d="M40.1614 21.9785L58.9508 21.9785V40.7679L49.5561 31.3732L40.1614 21.9785Z" fill="#ED9BA2"/>
<path d="M0.858887 20.7718L0.858887 1.98238L19.6483 1.98238L10.2536 11.3771L0.858887 20.7718Z" fill="white"/>
<path d="M0.858887 20.5994L19.6483 20.5994L19.6483 39.3889L10.2536 29.9941L0.858887 20.5994Z" fill="#62C3B6"/>
<rect x="40.8511" y="1.29286" width="18.1071" height="19.1418" fill="#765ADE"/>
<path d="M68.5449 20.8256C73.9388 20.8256 78.3113 16.4531 78.3113 11.0592C78.3113 5.66542 73.9388 1.29286 68.5449 1.29286C63.1511 1.29286 58.7786 5.66542 58.7786 11.0592C58.7786 16.4531 63.1511 20.8256 68.5449 20.8256Z" stroke="white" stroke-width="1.56262"/>
<path d="M60.6469 21.7338C60.6469 22.2497 60.2287 22.668 59.7128 22.668C59.1968 22.668 58.7786 22.2497 58.7786 21.7338V21.5336C58.7786 21.0177 59.1968 20.5994 59.7128 20.5994C60.2287 20.5994 60.6469 21.0177 60.6469 21.5336V21.7338Z" fill="black"/>
<path d="M60.6469 30.6976C60.6469 31.2135 60.2287 31.6317 59.7128 31.6317C59.1968 31.6317 58.7786 31.2135 58.7786 30.6976V30.4974C58.7786 29.9814 59.1968 29.5632 59.7128 29.5632C60.2287 29.5632 60.6469 29.9814 60.6469 30.4974V30.6976Z" fill="black"/>
<path d="M60.6469 39.6613C60.6469 40.1773 60.2287 40.5955 59.7128 40.5955C59.1968 40.5955 58.7786 40.1773 58.7786 39.6613V39.4611C58.7786 38.9452 59.1968 38.5269 59.7128 38.5269C60.2287 38.5269 60.6469 38.9452 60.6469 39.4611V39.6613Z" fill="black"/>
<path d="M69.3662 39.6613C69.3662 40.1773 68.9479 40.5955 68.432 40.5955C67.9161 40.5955 67.4978 40.1773 67.4978 39.6613V39.4611C67.4978 38.9452 67.9161 38.5269 68.432 38.5269C68.9479 38.5269 69.3662 38.9452 69.3662 39.4611V39.6613Z" fill="black"/>
<path d="M78.0852 39.6613C78.0852 40.1773 77.6669 40.5955 77.151 40.5955C76.635 40.5955 76.2168 40.1773 76.2168 39.6613V39.4611C76.2168 38.9452 76.635 38.5269 77.151 38.5269C77.6669 38.5269 78.0852 38.9452 78.0852 39.4611V39.6613Z" fill="black"/>
<path d="M69.3662 21.7338C69.3662 22.2497 68.9479 22.668 68.432 22.668C67.9161 22.668 67.4978 22.2497 67.4978 21.7338V21.5336C67.4978 21.0177 67.9161 20.5994 68.432 20.5994C68.9479 20.5994 69.3662 21.0177 69.3662 21.5336V21.7338Z" fill="black"/>
<path d="M69.3662 30.6976C69.3662 31.2135 68.9479 31.6317 68.432 31.6317C67.9161 31.6317 67.4978 31.2135 67.4978 30.6976V30.4974C67.4978 29.9814 67.9161 29.5632 68.432 29.5632C68.9479 29.5632 69.3662 29.9814 69.3662 30.4974V30.6976Z" fill="black"/>
<path d="M78.0852 30.6976C78.0852 31.2135 77.6669 31.6317 77.151 31.6317C76.635 31.6317 76.2168 31.2135 76.2168 30.6976V30.4974C76.2168 29.9814 76.635 29.5632 77.151 29.5632C77.6669 29.5632 78.0852 29.9814 78.0852 30.4974V30.6976Z" fill="black"/>
<path d="M78.0852 21.7338C78.0852 22.2497 77.6669 22.668 77.151 22.668C76.635 22.668 76.2168 22.2497 76.2168 21.7338V21.5336C76.2168 21.0177 76.635 20.5994 77.151 20.5994C77.6669 20.5994 78.0852 21.0177 78.0852 21.5336V21.7338Z" fill="black"/>
</svg>
