<svg width="107" height="47" viewBox="0 0 107 47" fill="none" xmlns="http://www.w3.org/2000/svg">
<path d="M15.0651 27.7135C22.2714 27.7135 28.1133 21.8716 28.1133 14.6653C28.1133 7.45895 22.2714 1.61707 15.0651 1.61707C7.85873 1.61707 2.01685 7.45895 2.01685 14.6653C2.01685 21.8716 7.85873 27.7135 15.0651 27.7135Z" stroke="#743A5E" stroke-width="2.08772"/>
<path d="M40.8927 27.7135C48.099 27.7135 53.9409 21.8716 53.9409 14.6653C53.9409 7.45895 48.099 1.61707 40.8927 1.61707C33.6864 1.61707 27.8445 7.45895 27.8445 14.6653C27.8445 21.8716 33.6864 27.7135 40.8927 27.7135Z" stroke="#915878" stroke-width="2.08772"/>
<path d="M66.7203 27.7135C73.9267 27.7135 79.7686 21.8716 79.7686 14.6653C79.7686 7.45895 73.9267 1.61707 66.7203 1.61707C59.514 1.61707 53.6721 7.45895 53.6721 14.6653C53.6721 21.8716 59.514 27.7135 66.7203 27.7135Z" stroke="#D792AA" stroke-width="2.08772"/>
<path d="M92.5482 27.7135C99.7546 27.7135 105.596 21.8716 105.596 14.6653C105.596 7.45895 99.7546 1.61707 92.5482 1.61707C85.3419 1.61707 79.5 7.45895 79.5 14.6653C79.5 21.8716 85.3419 27.7135 92.5482 27.7135Z" stroke="#E9D1DF" stroke-width="2.08772"/>
<path d="M102.088 46.4359H83.2985V27.6464L92.6932 37.0412L102.088 46.4359Z" fill="#ED9BA2"/>
<rect x="36.9602" y="27.4448" width="45.5784" height="18.7894" rx="9.39472" fill="#F2A35E"/>
<line x1="9.65954" y1="34.9947" x2="11.2236" y2="34.9947" stroke="white" stroke-width="3.13157" stroke-linecap="round"/>
<line x1="36.3849" y1="34.9947" x2="37.9489" y2="34.9947" stroke="white" stroke-width="3.13157" stroke-linecap="round"/>
<line x1="63.11" y1="34.9947" x2="64.674" y2="34.9947" stroke="white" stroke-width="3.13157" stroke-linecap="round"/>
</svg>
