<svg width="43" height="44" viewBox="0 0 43 44" fill="none" xmlns="http://www.w3.org/2000/svg">
<circle cx="21.465" cy="21.761" r="21.2555" fill="black"/>
<path d="M28.0572 22.5802C28.3646 22.2728 28.3646 21.7743 28.0572 21.4669L23.0472 16.4569C22.7397 16.1495 22.2413 16.1495 21.9339 16.4569C21.6264 16.7644 21.6264 17.2628 21.9339 17.5702L26.3872 22.0236L21.9339 26.4769C21.6264 26.7843 21.6264 27.2828 21.9339 27.5902C22.2413 27.8976 22.7397 27.8976 23.0472 27.5902L28.0572 22.5802ZM15.9543 21.2363C15.5195 21.2363 15.167 21.5888 15.167 22.0236C15.167 22.4583 15.5195 22.8108 15.9543 22.8108V21.2363ZM27.5005 21.2363H15.9543V22.8108H27.5005V21.2363Z" fill="white"/>
</svg>
