<svg width="66" height="61" viewBox="0 0 66 61" fill="none" xmlns="http://www.w3.org/2000/svg">
<path d="M4.7912 34.1819C4.7912 34.9843 4.14077 35.6347 3.33843 35.6347V35.6347C2.53609 35.6347 1.88566 34.9843 1.88566 34.1819V34.1819C1.88566 33.3796 2.53609 32.7292 3.33843 32.7292V32.7292C4.14077 32.7292 4.7912 33.3796 4.7912 34.1819V34.1819Z" fill="black"/>
<path d="M4.7912 46.7726C4.7912 47.575 4.14077 48.2254 3.33843 48.2254V48.2254C2.53609 48.2254 1.88566 47.575 1.88566 46.7726V46.7726C1.88566 45.9703 2.53609 45.3199 3.33843 45.3199V45.3199C4.14077 45.3199 4.7912 45.9703 4.7912 46.7726V46.7726Z" fill="black"/>
<path d="M4.7912 59.3633C4.7912 60.1656 4.14077 60.8161 3.33843 60.8161V60.8161C2.53609 60.8161 1.88566 60.1656 1.88566 59.3633V59.3633C1.88566 58.5609 2.53609 57.9105 3.33843 57.9105V57.9105C4.14077 57.9105 4.7912 58.5609 4.7912 59.3633V59.3633Z" fill="black"/>
<path d="M18.3504 59.3633C18.3504 60.1656 17.7 60.8161 16.8976 60.8161V60.8161C16.0953 60.8161 15.4448 60.1656 15.4448 59.3633V59.3633C15.4448 58.5609 16.0953 57.9105 16.8976 57.9105V57.9105C17.7 57.9105 18.3504 58.5609 18.3504 59.3633V59.3633Z" fill="black"/>
<path d="M31.9096 59.3633C31.9096 60.1656 31.2591 60.8161 30.4568 60.8161V60.8161C29.6544 60.8161 29.004 60.1656 29.004 59.3633V59.3633C29.004 58.5609 29.6544 57.9105 30.4568 57.9105V57.9105C31.2591 57.9105 31.9096 58.5609 31.9096 59.3633V59.3633Z" fill="black"/>
<path d="M18.3504 34.1819C18.3504 34.9843 17.7 35.6347 16.8976 35.6347V35.6347C16.0953 35.6347 15.4448 34.9843 15.4448 34.1819V34.1819C15.4448 33.3796 16.0953 32.7292 16.8976 32.7292V32.7292C17.7 32.7292 18.3504 33.3796 18.3504 34.1819V34.1819Z" fill="black"/>
<path d="M18.3504 46.7726C18.3504 47.575 17.7 48.2254 16.8976 48.2254V48.2254C16.0953 48.2254 15.4448 47.575 15.4448 46.7726V46.7726C15.4448 45.9703 16.0953 45.3199 16.8976 45.3199V45.3199C17.7 45.3199 18.3504 45.9703 18.3504 46.7726V46.7726Z" fill="black"/>
<path d="M31.9096 46.7726C31.9096 47.575 31.2591 48.2254 30.4568 48.2254V48.2254C29.6544 48.2254 29.004 47.575 29.004 46.7726V46.7726C29.004 45.9703 29.6544 45.3199 30.4568 45.3199V45.3199C31.2591 45.3199 31.9096 45.9703 31.9096 46.7726V46.7726Z" fill="black"/>
<path d="M31.9096 34.1819C31.9096 34.9843 31.2591 35.6347 30.4568 35.6347V35.6347C29.6544 35.6347 29.004 34.9843 29.004 34.1819V34.1819C29.004 33.3796 29.6544 32.7292 30.4568 32.7292V32.7292C31.2591 32.7292 31.9096 33.3796 31.9096 34.1819V34.1819Z" fill="black"/>
<rect x="0.656494" y="2" width="32.0921" height="30.4031" fill="#EA755E"/>
<path d="M49.0455 32.4031C57.4411 32.4031 64.2471 25.5971 64.2471 17.2015C64.2471 8.80596 57.4411 2 49.0455 2C40.65 2 33.844 8.80596 33.844 17.2015C33.844 25.5971 40.65 32.4031 49.0455 32.4031Z" stroke="black" stroke-width="3.37812"/>
<path d="M34.4586 32.7292H62.7294V61L48.594 46.8646L34.4586 32.7292Z" fill="white"/>
</svg>
