<svg width="126" height="202" viewBox="0 0 126 202" fill="none" xmlns="http://www.w3.org/2000/svg">
<path d="M0.656494 0H73.4864V138.789H0.656494V0Z" fill="#55204A"/>
<path d="M37.0715 48.0952C46.558 48.0952 54.2483 40.4049 54.2483 30.9184C54.2483 21.4318 46.558 13.7415 37.0715 13.7415C27.5849 13.7415 19.8946 21.4318 19.8946 30.9184C19.8946 40.4049 27.5849 48.0952 37.0715 48.0952Z" stroke="white" stroke-width="2.7483"/>
<path d="M4.77894 140.85C4.77894 141.989 3.8561 142.912 2.71772 142.912V142.912C1.57934 142.912 0.656494 141.989 0.656494 140.85V140.85C0.656494 139.712 1.57934 138.789 2.71772 138.789V138.789C3.8561 138.789 4.77894 139.712 4.77894 140.85V140.85Z" fill="black"/>
<path d="M4.77894 158.714C4.77894 159.853 3.8561 160.776 2.71772 160.776V160.776C1.57934 160.776 0.656494 159.853 0.656494 158.714V158.714C0.656494 157.576 1.57934 156.653 2.71772 156.653V156.653C3.8561 156.653 4.77894 157.576 4.77894 158.714V158.714Z" fill="black"/>
<path d="M4.77894 176.578C4.77894 177.717 3.8561 178.639 2.71772 178.639V178.639C1.57934 178.639 0.656494 177.717 0.656494 176.578V176.578C0.656494 175.44 1.57934 174.517 2.71772 174.517V174.517C3.8561 174.517 4.77894 175.44 4.77894 176.578V176.578Z" fill="black"/>
<path d="M24.017 176.578C24.017 177.717 23.0942 178.639 21.9558 178.639V178.639C20.8174 178.639 19.8946 177.717 19.8946 176.578V176.578C19.8946 175.44 20.8174 174.517 21.9558 174.517V174.517C23.0942 174.517 24.017 175.44 24.017 176.578V176.578Z" fill="black"/>
<path d="M43.2551 176.578C43.2551 177.717 42.3323 178.639 41.1939 178.639V178.639C40.0555 178.639 39.1327 177.717 39.1327 176.578V176.578C39.1327 175.44 40.0555 174.517 41.1939 174.517V174.517C42.3323 174.517 43.2551 175.44 43.2551 176.578V176.578Z" fill="black"/>
<path d="M24.017 140.85C24.017 141.989 23.0942 142.912 21.9558 142.912V142.912C20.8174 142.912 19.8946 141.989 19.8946 140.85V140.85C19.8946 139.712 20.8174 138.789 21.9558 138.789V138.789C23.0942 138.789 24.017 139.712 24.017 140.85V140.85Z" fill="black"/>
<path d="M24.017 158.714C24.017 159.853 23.0942 160.776 21.9558 160.776V160.776C20.8174 160.776 19.8946 159.853 19.8946 158.714V158.714C19.8946 157.576 20.8174 156.653 21.9558 156.653V156.653C23.0942 156.653 24.017 157.576 24.017 158.714V158.714Z" fill="black"/>
<path d="M43.2551 158.714C43.2551 159.853 42.3323 160.776 41.1939 160.776V160.776C40.0555 160.776 39.1327 159.853 39.1327 158.714V158.714C39.1327 157.576 40.0555 156.653 41.1939 156.653V156.653C42.3323 156.653 43.2551 157.576 43.2551 158.714V158.714Z" fill="black"/>
<path d="M43.2551 140.85C43.2551 141.989 42.3323 142.912 41.1939 142.912V142.912C40.0555 142.912 39.1327 141.989 39.1327 140.85V140.85C39.1327 139.712 40.0555 138.789 41.1939 138.789V138.789C42.3323 138.789 43.2551 139.712 43.2551 140.85V140.85Z" fill="black"/>
<line x1="75.5476" y1="29.5442" x2="77.6066" y2="29.5442" stroke="black" stroke-width="4.12245" stroke-linecap="round"/>
<line x1="98.2188" y1="29.5442" x2="100.278" y2="29.5442" stroke="black" stroke-width="4.12245" stroke-linecap="round"/>
<line x1="120.89" y1="29.5442" x2="122.949" y2="29.5442" stroke="black" stroke-width="4.12245" stroke-linecap="round"/>
<path d="M73.4864 60.4626C73.4864 53.6323 79.0234 48.0952 85.8537 48.0952H111.963C118.793 48.0952 124.33 53.6323 124.33 60.4626C124.33 67.2929 118.793 72.8299 111.963 72.8299H85.8537C79.0234 72.8299 73.4864 67.2929 73.4864 60.4626Z" fill="#F2A35E"/>
<path d="M111.963 72.8299C118.793 72.8299 124.33 67.2929 124.33 60.4626C124.33 53.6323 118.793 48.0952 111.963 48.0952C105.132 48.0952 99.5953 53.6323 99.5953 60.4626C99.5953 67.2929 105.132 72.8299 111.963 72.8299Z" stroke="white" stroke-width="2.7483"/>
<path d="M85.8537 97.5646C92.684 97.5646 98.2211 92.0276 98.2211 85.1973C98.2211 78.367 92.684 72.8299 85.8537 72.8299C79.0234 72.8299 73.4864 78.367 73.4864 85.1973C73.4864 92.0276 79.0234 97.5646 85.8537 97.5646Z" stroke="black" stroke-width="2.7483"/>
<path d="M98.2211 72.8299H124.33V97.5646H98.2211V72.8299Z" fill="#EA755E"/>
<path d="M44.6293 177.265H69.364V202L56.9966 189.633L44.6293 177.265Z" fill="#69BDC1"/>
<path d="M28.1395 97.5646H124.33V193.755L76.2347 145.66L28.1395 97.5646Z" fill="white"/>
</svg>
