<svg width="43" height="44" viewBox="0 0 43 44" fill="none" xmlns="http://www.w3.org/2000/svg">
<circle cx="21.5353" cy="21.761" r="21.2555" fill="black"/>
<path d="M14.9431 21.4669C14.6357 21.7743 14.6357 22.2728 14.9431 22.5802L19.9531 27.5902C20.2605 27.8976 20.759 27.8976 21.0664 27.5902C21.3738 27.2828 21.3738 26.7843 21.0664 26.4769L16.6131 22.0236L21.0664 17.5702C21.3738 17.2628 21.3738 16.7644 21.0664 16.4569C20.759 16.1495 20.2605 16.1495 19.9531 16.4569L14.9431 21.4669ZM27.5708 22.8108C28.0056 22.8108 28.358 22.4583 28.358 22.0236C28.358 21.5888 28.0056 21.2363 27.5708 21.2363V22.8108ZM15.4998 22.8108H27.5708V21.2363H15.4998V22.8108Z" fill="white"/>
</svg>
