<svg width="97" height="40" viewBox="0 0 97 40" fill="none" xmlns="http://www.w3.org/2000/svg">
<path d="M74.8179 1.40256V20.192L56.0284 20.192L65.4232 10.7973L74.8179 1.40256Z" fill="white"/>
<rect x="18.7942" y="2.09207" width="37.2341" height="37.2341" fill="#EA755E"/>
<path d="M56.0283 20.7091L74.8178 20.7091V39.4986L65.423 30.1039L56.0283 20.7091Z" fill="#551F49"/>
<path d="M19.656 38.809L0.866572 38.809L0.866572 20.0196L10.2613 29.4143L19.656 38.809Z" fill="#F39D9E"/>
<line x1="78.7401" y1="37.9049" x2="78.7401" y2="36.0322" stroke="black" stroke-width="2.84251" stroke-linecap="round"/>
<line x1="78.7401" y1="20.6112" x2="78.7401" y2="18.7385" stroke="black" stroke-width="2.84251" stroke-linecap="round"/>
<line x1="78.7401" y1="3.31745" x2="78.7401" y2="1.44475" stroke="black" stroke-width="2.84251" stroke-linecap="round"/>
<line x1="87.0143" y1="37.9049" x2="87.0143" y2="36.0322" stroke="black" stroke-width="2.84251" stroke-linecap="round"/>
<line x1="87.0143" y1="20.6112" x2="87.0143" y2="18.7385" stroke="black" stroke-width="2.84251" stroke-linecap="round"/>
<line x1="87.0143" y1="3.31745" x2="87.0143" y2="1.44475" stroke="black" stroke-width="2.84251" stroke-linecap="round"/>
<line x1="95.2887" y1="37.9049" x2="95.2887" y2="36.0322" stroke="black" stroke-width="2.84251" stroke-linecap="round"/>
<line x1="95.2887" y1="20.6112" x2="95.2887" y2="18.7385" stroke="black" stroke-width="2.84251" stroke-linecap="round"/>
<line x1="95.2887" y1="3.31745" x2="95.2887" y2="1.44475" stroke="black" stroke-width="2.84251" stroke-linecap="round"/>
<path d="M37.4112 32.431C43.1233 32.431 47.754 27.8003 47.754 22.0882C47.754 16.376 43.1233 11.7454 37.4112 11.7454C31.699 11.7454 27.0684 16.376 27.0684 22.0882C27.0684 27.8003 31.699 32.431 37.4112 32.431Z" stroke="white" stroke-width="2.08772"/>
<path d="M9.48563 20.0196C13.865 20.0196 17.4151 16.4695 17.4151 12.0901C17.4151 7.71079 13.865 4.16064 9.48563 4.16064C5.1063 4.16064 1.55615 7.71079 1.55615 12.0901C1.55615 16.4695 5.1063 20.0196 9.48563 20.0196Z" stroke="#552149" stroke-width="2.08772"/>
</svg>
